<svg xmlns="http://www.w3.org/2000/svg"
shape-rendering="geometricPrecision"
width="4000" height="4000" viewBox="0 0 1024 1024">
  <metadata>null</metadata>

<path d="
M 47.452 534.098
C 48.63 528.037 49.76 522.181 52.419 516.532
C 65.348 489.072 93.574 472.973 121.605 464.695
C 127.416 462.979 133.486 461.742 139.483 460.9
C 142.307 460.503 145.461 460.509 148.202 459.839
C 148.038 456.245 148.306 452.608 148.302 449.009
C 148.296 444.023 148.076 438.473 149.616 433.667
C 150.652 430.432 152.519 427.289 154.42 424.488
C 156.081 422.043 158.17 419.565 160.378 417.598
C 167.92 410.881 180.183 407.137 180.443 395.25
C 180.476 393.731 180.458 392.14 179.936 390.694
C 179.309 388.957 178.341 387.297 177.19 385.857
C 170.155 377.054 156.388 378.293 149.965 386.992
C 147.282 390.627 146.802 397.346 141.726 398.292
C 136.342 399.295 130.362 398.668 124.907 398.65
C 122.316 398.642 119.053 399.159 116.542 398.478
C 114.863 398.023 113.804 395.368 113.702 393.849
C 113.395 389.29 114.452 384.505 115.772 380.174
C 122.253 358.907 143.284 345.283 165.158 345.691
C 184.416 346.05 202.746 358.037 210.289 375.832
C 217.475 392.785 214.693 414.16 202.599 428.179
C 198.918 432.445 194.815 435.917 190.231 439.177
C 187.36 441.218 183.317 443.602 181.869 447.016
C 181.18 448.64 181.32 451.438 181.271 453.201
C 181.228 454.735 181.169 456.274 181.139 457.808
C 181.129 458.357 180.933 459.234 181.201 459.697
C 185.791 459.45 190.943 460.925 195.428 461.809
C 209.919 464.664 223.636 469.709 236.677 476.61
C 258.208 488.004 277.745 506.7 282.102 531.627
C 283.042 537.001 283.054 542.606 282.435 548.005
C 281.903 552.642 281.019 557.272 279.384 561.668
C 277.15 567.673 274.157 573.415 270.318 578.556
C 265.214 585.391 259.196 591.781 252.29 596.836
C 207.883 629.336 145.506 632.863 96.481 608.515
C 73.278 596.992 50.867 576.508 47.525 549.429
C 46.899 544.36 46.852 539.174 47.452 534.098 Z
M 76.485 538.611
C 74.073 560.275 96.256 575.04 113.432 582.528
C 147.366 597.322 188.272 596.506 221.476 580.126
C 235.405 573.255 251.562 561.237 253.167 544.472
C 255.224 522.987 233.159 508.147 216.186 500.192
C 182.655 484.478 140.491 486.3 107.808 503.037
C 94.085 510.065 78.324 522.086 76.485 538.611 Z"
opacity="1" fill="rgb(79,19,19)" fill-rule="evenodd" />
<path d="
M 127.457 540.104
C 127.809 534.726 129.146 529.138 131.705 524.377
C 134.002 520.103 137.181 516.003 140.963 512.932
C 159.256 498.077 188.004 504.167 198.674 525.224
C 201.704 531.204 202.94 538.313 202.549 544.988
C 202.263 549.865 200.897 554.735 198.697 559.084
C 195.601 565.206 190.995 570.385 185.119 573.966
C 170.377 582.951 149.231 580.349 137.224 567.796
C 133.408 563.807 130.883 558.989 129.175 553.789
C 127.749 549.448 127.159 544.664 127.457 540.104 Z"
opacity="1" fill="rgb(250,158,121)" fill-rule="evenodd" />
<path d="
M 298.92 490.094
C 301.441 478.393 314.094 472.185 325.257 476.588
C 329.465 478.248 332.826 481.676 334.991 485.597
C 337.944 490.946 336.806 498.644 336.812 504.533
C 336.826 517.672 336.851 530.81 336.894 543.949
C 336.906 547.457 336.813 551.422 337.979 554.776
C 340.649 562.463 347.782 566.114 355.593 565.721
C 362.807 565.358 370.223 561.504 372.694 554.299
C 374.114 550.161 373.808 545.677 373.797 541.372
C 373.768 529.915 373.875 518.458 373.871 507.001
C 373.869 501.102 372.914 494.213 374.305 488.45
C 377.554 474.983 396.681 471.447 406.024 480.445
C 413.528 487.673 411.498 498.402 411.474 507.847
C 411.427 526.718 411.571 545.597 411.594 564.47
C 411.6 569.669 411.476 574.868 411.486 580.067
C 411.492 583.544 411.882 587.259 410.589 590.56
C 406.475 601.057 392.879 603.755 383.338 599.62
C 380.747 598.497 379.144 596.697 377.023 594.97
C 369.48 598.557 362.555 601.163 354.119 601.478
C 347.801 601.714 341.319 601.703 335.162 600.066
C 330.469 598.818 326.134 596.874 321.965 594.392
C 318.603 592.391 315.423 589.81 312.749 586.954
C 306.489 580.27 302.224 572.287 300.167 563.363
C 298.735 557.151 298.77 550.747 298.76 544.41
C 298.75 537.432 298.75 530.453 298.757 523.475
C 298.763 516.487 298.773 509.498 298.75 502.51
C 298.736 498.402 298.435 494.181 298.92 490.094 Z"
opacity="1" fill="rgb(79,18,19)" fill-rule="evenodd" />
<path d="
M 435.47 448.604
C 436.063 444.606 437.433 441.262 440.146 438.211
C 447.793 429.612 462.135 430.709 469.395 439.162
C 474.962 445.645 473.625 454.548 473.641 462.498
C 473.649 466.676 474.073 471.08 473.59 475.225
C 480.234 474.64 487.129 475.101 493.799 475.118
C 497.546 475.128 501.735 474.705 505.215 476.351
C 508.923 478.106 512.074 480.554 514.091 484.2
C 518.301 491.81 516.553 503.01 509.706 508.37
C 504.913 512.121 500.076 511.937 494.286 511.878
C 489.855 511.834 485.426 511.789 480.995 511.764
C 478.58 511.75 475.71 511.327 473.389 512.036
C 474.108 522.02 473.449 532.363 473.421 542.383
C 473.404 548.79 473.193 555.166 477.704 560.293
C 478.925 561.681 480.436 563.078 482.105 563.905
C 488.85 567.244 496.746 563.785 503.803 564.862
C 507.685 565.454 511.439 568.116 513.883 571.095
C 515.079 572.554 515.937 574.31 516.424 576.132
C 517.077 578.579 517.341 581.024 517.225 583.556
C 516.886 590.974 511.782 597.963 504.539 600.12
C 500.775 601.241 496.693 601.048 492.816 601.087
C 487.003 601.146 480.882 601.498 475.135 600.492
C 462.125 598.217 450.832 590.178 443.753 579.127
C 433.92 563.776 435.419 545.89 435.413 528.498
C 435.406 510.998 435.434 493.498 435.42 475.998
C 435.413 466.943 434.771 457.63 435.47 448.604 Z"
opacity="1" fill="rgb(79,19,19)" fill-rule="evenodd" />
<path d="
M 536.455 452.121
C 537.186 446.503 537.197 441.035 538.991 435.556
C 544.574 418.507 558.955 404.323 576.686 400.39
C 586.296 398.259 596.272 400.317 605.946 399.475
C 605.327 401.293 603.356 402.614 602.418 404.306
C 599.466 409.635 597.812 415.398 599.065 421.503
C 599.821 425.187 601.44 428.527 603.725 431.516
C 604.565 432.614 605.519 433.627 606.486 434.614
C 606.635 434.766 607.488 435.355 607.29 435.565
C 600.224 436.053 592.565 433.932 585.567 435.654
C 580.126 436.992 575.709 442.159 574.499 447.54
C 573.877 450.307 574.154 453.415 574.208 456.23
C 574.326 462.367 574.949 468.96 574.285 475.057
C 581.366 474.489 588.683 475.116 595.79 475.139
C 600.422 475.154 605.262 474.706 609.462 477.021
C 620.974 483.366 622.824 501.985 611.334 509.378
C 607.05 512.134 602.697 511.953 597.779 511.919
C 593.353 511.889 588.927 511.889 584.501 511.878
C 581.917 511.871 579.332 511.85 576.749 511.861
C 576.039 511.864 574.701 511.698 574.17 512.206
C 574.765 529.596 574.211 547.098 574.207 564.499
C 574.205 569.608 574.224 574.718 574.206 579.827
C 574.195 583.113 574.416 586.563 573.213 589.688
C 568.09 602.998 546.927 605.944 539.128 593.449
C 536.197 588.754 536.541 583.057 536.554 577.75
C 536.575 569.332 536.423 560.921 536.419 552.499
C 536.408 529.999 536.378 507.499 536.405 484.998
C 536.419 474.063 536.027 463.047 536.455 452.121 Z"
opacity="1" fill="rgb(78,18,19)" fill-rule="evenodd" />
<path d="
M 611.395 413.574
C 613.866 406.152 621.958 400.841 629.819 404.141
C 633.796 405.81 636.712 409.483 639.561 412.582
C 640.174 410.553 639.683 407.631 639.666 405.505
C 639.62 400.004 639.58 394.502 639.609 389
C 639.626 385.556 639.392 382.041 641.159 378.94
C 646.908 368.852 663.212 370.509 666.626 381.695
C 667.166 383.462 667.036 385.568 667.065 387.403
C 667.118 390.805 667.058 394.207 667.066 397.609
C 667.091 408.828 666.996 420.048 667.079 431.267
C 667.102 434.481 666.949 437.687 666.941 440.895
C 666.933 444.234 667.074 447.533 665.527 450.597
C 662.598 456.398 655.555 459.971 649.151 457.787
C 644.497 456.199 640.856 451.711 637.472 448.343
C 631.519 442.417 625.409 436.653 619.433 430.751
C 614.33 425.711 609.709 421.366 611.395 413.574 Z"
opacity="1" fill="rgb(250,160,125)" fill-rule="evenodd" />
<path d="
M 638.366 489.072
C 640.6 477.848 654.094 472.899 664.134 476.604
C 669.036 478.413 672.941 482.408 674.915 487.214
C 676.172 490.275 675.789 493.953 675.81 497.194
C 675.851 503.13 675.812 509.067 675.824 515.004
C 675.857 531.841 675.868 548.678 675.91 565.514
C 675.922 570.522 675.92 575.529 675.89 580.536
C 675.872 583.57 676.164 586.757 675.182 589.681
C 669.799 605.716 643.798 605.137 638.947 589.023
C 637.795 585.194 638.184 580.804 638.164 576.845
C 638.125 569.567 638.129 562.288 638.121 555.01
C 638.103 540.509 638.117 526.008 638.096 511.508
C 638.089 506.871 638.105 502.234 638.094 497.598
C 638.087 494.793 637.815 491.84 638.366 489.072 Z"
opacity="1" fill="rgb(79,19,20)" fill-rule="evenodd" />
<path d="
M 699.413 447.607
C 701.999 431.45 724.305 427.435 733.784 440.09
C 737.429 444.955 737.229 449.918 737.228 455.712
C 737.226 462.18 736.972 468.708 737.25 475.169
C 739.386 474.808 741.841 475.135 744.013 475.131
C 748.768 475.123 753.525 475.104 758.28 475.129
C 761.931 475.148 765.971 474.738 769.317 476.475
C 772.89 478.33 776.072 481.039 777.967 484.646
C 782.028 492.381 780.047 503.529 772.955 508.756
C 768.324 512.169 763.798 511.91 758.289 511.871
C 751.327 511.822 743.872 511.061 736.974 512.026
C 736.534 521.961 736.857 532.07 737.097 541.999
C 737.276 549.366 736.796 556.038 742.399 561.685
C 748.81 568.146 758.836 563.921 766.748 565.035
C 770.986 565.633 774.643 568.689 777.079 572.053
C 778.282 573.713 779.242 575.563 779.675 577.58
C 780.21 580.069 780.386 582.94 780.121 585.47
C 779.374 592.575 773.619 598.82 766.733 600.713
C 763.299 601.656 759.381 601.167 755.857 601.154
C 750.239 601.135 744.183 601.677 738.646 600.546
C 725.237 597.806 714.027 589.976 706.846 578.286
C 697.734 563.451 699.376 546.153 699.354 529.502
C 699.329 511.338 699.269 493.173 699.294 475.009
C 699.306 465.913 698.871 456.688 699.413 447.607 Z"
opacity="1" fill="rgb(79,19,19)" fill-rule="evenodd" />
<path d="
M 800.982 413.6
C 801.149 411.563 801.758 409.588 802.678 407.772
C 809.839 393.632 832.387 395.229 837.51 410.205
C 839.158 415.022 838.284 421.047 838.292 426.072
C 838.308 436.215 838.317 446.358 838.312 456.502
C 838.296 490.673 838.507 524.843 838.451 559.014
C 838.44 565.317 838.432 571.621 838.434 577.924
C 838.435 581.366 838.829 585.017 838.13 588.411
C 837.129 593.275 833.461 597.554 828.91 599.441
C 826.74 600.34 824.518 600.806 822.194 601.09
C 819.891 601.372 817.399 601.37 815.126 600.88
C 813.381 600.503 811.681 599.919 810.095 599.092
C 801.122 594.416 801.155 585.189 801.127 576.379
C 801.109 570.921 801.103 565.463 801.098 560.005
C 801.066 527.839 801.124 495.671 801.058 463.505
C 801.035 452.335 800.935 441.165 800.923 429.994
C 800.917 424.575 800.538 419.001 800.982 413.6 Z"
opacity="1" fill="rgb(78,19,19)" fill-rule="evenodd" />
<path d="
M 861.458 638.609
C 862.077 634.864 862.995 631.463 865.581 628.53
C 871.282 622.065 882.112 621.065 889.574 624.935
C 893.361 626.9 895.639 630.419 898.648 633.267
C 903.374 637.742 909.104 640.424 915.63 640.731
C 927.481 641.287 937.57 632.552 939.721 620.968
C 941.087 613.617 939.556 605.433 939.721 597.985
C 935.861 598.839 932.187 600.296 928.278 601.053
C 923.314 602.015 918.241 602.12 913.21 601.912
C 907.607 601.679 902.125 600.594 896.885 598.589
C 892.448 596.891 888.108 594.681 884.356 591.737
C 873.87 583.508 867.294 571.832 865.323 558.674
C 863.758 548.229 864.807 537.053 864.8 526.508
C 864.794 518.191 864.796 509.874 864.787 501.557
C 864.782 497.434 864.312 492.952 865.195 488.905
C 866.141 484.571 869.278 480.686 872.906 478.253
C 883.095 471.42 900.706 476.749 902.203 490.039
C 902.845 495.733 902.255 501.774 902.237 507.502
C 902.2 519.168 902.165 530.835 902.196 542.5
C 902.206 546.394 901.846 550.699 903.112 554.441
C 905.672 562.006 913.055 565.834 920.668 565.919
C 929.426 566.016 936.872 561.686 938.98 552.816
C 939.798 549.375 939.321 545.518 939.32 542.009
C 939.317 530.682 939.325 519.354 939.378 508.027
C 939.407 501.908 938.854 495.507 939.745 489.44
C 941.783 475.554 959.973 472.025 969.965 479.377
C 977.308 484.78 977.183 492.764 977.179 500.999
C 977.175 511 977.226 521.001 977.231 531.003
C 977.241 551.003 977.238 571.002 977.238 591.002
C 977.238 601.953 978.282 613.5 976.675 624.358
C 973.938 642.855 963.361 658.621 947.177 668.029
C 926.277 680.177 898.388 678.45 878.476 665.172
C 869.546 659.218 860.538 650.164 861.458 638.609 Z"
opacity="1" fill="rgb(79,19,20)" fill-rule="evenodd" />

</svg>